<mxfile host="app.diagrams.net" modified="2023-06-08T13:52:21.258Z" agent="Mozilla/5.0 (Windows NT 10.0; Win64; x64) AppleWebKit/537.36 (KHTML, like Gecko) Chrome/114.0.0.0 Safari/537.36 Edg/114.0.1823.37" etag="cIkszpDnZUnbJAhrwmzP" version="21.3.7" type="github">
  <diagram name="第 1 页" id="QHWZOpL-qoqAQHFRJoSv">
    <mxGraphModel dx="1103" dy="637" grid="0" gridSize="1" guides="1" tooltips="1" connect="1" arrows="1" fold="1" page="1" pageScale="1" pageWidth="827" pageHeight="1169" math="0" shadow="0">
      <root>
        <mxCell id="0" />
        <mxCell id="1" parent="0" />
        <mxCell id="CazwhgpImjo2oY49ruT6-17" value="" style="rounded=0;whiteSpace=wrap;html=1;fillColor=#f5f5f5;fontColor=#333333;strokeColor=#0a0a0a;" vertex="1" parent="1">
          <mxGeometry x="190" y="311" width="90" height="60" as="geometry" />
        </mxCell>
        <mxCell id="CazwhgpImjo2oY49ruT6-6" value="" style="group" vertex="1" connectable="0" parent="1">
          <mxGeometry x="210" y="320" width="35" height="42.5" as="geometry" />
        </mxCell>
        <mxCell id="CazwhgpImjo2oY49ruT6-3" value="" style="triangle;whiteSpace=wrap;html=1;" vertex="1" parent="CazwhgpImjo2oY49ruT6-6">
          <mxGeometry width="25" height="30" as="geometry" />
        </mxCell>
        <mxCell id="CazwhgpImjo2oY49ruT6-4" value="" style="ellipse;whiteSpace=wrap;html=1;aspect=fixed;" vertex="1" parent="CazwhgpImjo2oY49ruT6-6">
          <mxGeometry x="25" y="12.5" width="5" height="5" as="geometry" />
        </mxCell>
        <mxCell id="CazwhgpImjo2oY49ruT6-19" value="" style="rounded=0;whiteSpace=wrap;html=1;fillColor=#f5f5f5;fontColor=#333333;strokeColor=#0a0a0a;" vertex="1" parent="1">
          <mxGeometry x="227" y="362" width="90" height="60" as="geometry" />
        </mxCell>
        <mxCell id="CazwhgpImjo2oY49ruT6-20" value="" style="group" vertex="1" connectable="0" parent="1">
          <mxGeometry x="247" y="371" width="35" height="42.5" as="geometry" />
        </mxCell>
        <mxCell id="CazwhgpImjo2oY49ruT6-21" value="" style="triangle;whiteSpace=wrap;html=1;" vertex="1" parent="CazwhgpImjo2oY49ruT6-20">
          <mxGeometry width="25" height="30" as="geometry" />
        </mxCell>
        <mxCell id="CazwhgpImjo2oY49ruT6-22" value="" style="ellipse;whiteSpace=wrap;html=1;aspect=fixed;" vertex="1" parent="CazwhgpImjo2oY49ruT6-20">
          <mxGeometry x="25" y="12.5" width="5" height="5" as="geometry" />
        </mxCell>
        <mxCell id="CazwhgpImjo2oY49ruT6-23" value="" style="rounded=0;whiteSpace=wrap;html=1;" vertex="1" parent="1">
          <mxGeometry x="142" y="98" width="90" height="60" as="geometry" />
        </mxCell>
        <mxCell id="CazwhgpImjo2oY49ruT6-24" value="" style="group" vertex="1" connectable="0" parent="1">
          <mxGeometry x="162" y="107" width="35" height="42.5" as="geometry" />
        </mxCell>
        <mxCell id="CazwhgpImjo2oY49ruT6-25" value="" style="triangle;whiteSpace=wrap;html=1;" vertex="1" parent="CazwhgpImjo2oY49ruT6-24">
          <mxGeometry width="25" height="30" as="geometry" />
        </mxCell>
        <mxCell id="CazwhgpImjo2oY49ruT6-26" value="" style="ellipse;whiteSpace=wrap;html=1;aspect=fixed;" vertex="1" parent="CazwhgpImjo2oY49ruT6-24">
          <mxGeometry x="25" y="12.5" width="5" height="5" as="geometry" />
        </mxCell>
        <mxCell id="CazwhgpImjo2oY49ruT6-47" style="edgeStyle=orthogonalEdgeStyle;rounded=0;orthogonalLoop=1;jettySize=auto;html=1;exitX=1;exitY=0.5;exitDx=0;exitDy=0;entryX=0;entryY=0.5;entryDx=0;entryDy=0;endArrow=none;endFill=0;" edge="1" parent="1" source="CazwhgpImjo2oY49ruT6-4" target="CazwhgpImjo2oY49ruT6-30">
          <mxGeometry relative="1" as="geometry">
            <Array as="points" />
          </mxGeometry>
        </mxCell>
        <mxCell id="CazwhgpImjo2oY49ruT6-34" value="LUT" style="text;html=1;strokeColor=none;fillColor=none;align=center;verticalAlign=middle;whiteSpace=wrap;rounded=0;" vertex="1" parent="1">
          <mxGeometry x="227.5" y="305" width="60" height="30" as="geometry" />
        </mxCell>
        <mxCell id="CazwhgpImjo2oY49ruT6-36" value="LUT" style="text;html=1;strokeColor=none;fillColor=none;align=center;verticalAlign=middle;whiteSpace=wrap;rounded=0;" vertex="1" parent="1">
          <mxGeometry x="264.5" y="357" width="60" height="30" as="geometry" />
        </mxCell>
        <mxCell id="CazwhgpImjo2oY49ruT6-37" value="LUT" style="text;html=1;strokeColor=none;fillColor=none;align=center;verticalAlign=middle;whiteSpace=wrap;rounded=0;" vertex="1" parent="1">
          <mxGeometry x="179.5" y="93" width="60" height="30" as="geometry" />
        </mxCell>
        <mxCell id="CazwhgpImjo2oY49ruT6-39" value="" style="group" vertex="1" connectable="0" parent="1">
          <mxGeometry x="390" y="287" width="136" height="93" as="geometry" />
        </mxCell>
        <mxCell id="CazwhgpImjo2oY49ruT6-28" value="" style="rounded=0;whiteSpace=wrap;html=1;fillColor=#f5f5f5;fontColor=#333333;strokeColor=#0a0a0a;" vertex="1" parent="CazwhgpImjo2oY49ruT6-39">
          <mxGeometry x="16" width="100" height="92" as="geometry" />
        </mxCell>
        <mxCell id="CazwhgpImjo2oY49ruT6-29" value="EN" style="text;html=1;strokeColor=none;fillColor=none;align=center;verticalAlign=middle;whiteSpace=wrap;rounded=0;" vertex="1" parent="CazwhgpImjo2oY49ruT6-39">
          <mxGeometry x="17.5" y="3" width="26" height="30" as="geometry" />
        </mxCell>
        <mxCell id="CazwhgpImjo2oY49ruT6-30" value="D" style="text;html=1;strokeColor=none;fillColor=none;align=center;verticalAlign=middle;whiteSpace=wrap;rounded=0;" vertex="1" parent="CazwhgpImjo2oY49ruT6-39">
          <mxGeometry x="17.5" y="33" width="25" height="30" as="geometry" />
        </mxCell>
        <mxCell id="CazwhgpImjo2oY49ruT6-31" value="CLK" style="text;html=1;strokeColor=none;fillColor=none;align=center;verticalAlign=middle;whiteSpace=wrap;rounded=0;" vertex="1" parent="CazwhgpImjo2oY49ruT6-39">
          <mxGeometry x="19" y="64" width="28" height="30" as="geometry" />
        </mxCell>
        <mxCell id="CazwhgpImjo2oY49ruT6-32" value="Q" style="text;html=1;strokeColor=none;fillColor=none;align=center;verticalAlign=middle;whiteSpace=wrap;rounded=0;" vertex="1" parent="CazwhgpImjo2oY49ruT6-39">
          <mxGeometry x="94" y="15" width="20" height="30" as="geometry" />
        </mxCell>
        <mxCell id="CazwhgpImjo2oY49ruT6-38" value="REG" style="text;html=1;strokeColor=none;fillColor=none;align=center;verticalAlign=middle;whiteSpace=wrap;rounded=0;" vertex="1" parent="CazwhgpImjo2oY49ruT6-39">
          <mxGeometry x="42.5" y="-1" width="60" height="30" as="geometry" />
        </mxCell>
        <mxCell id="CazwhgpImjo2oY49ruT6-48" value="" style="group;" vertex="1" connectable="0" parent="1">
          <mxGeometry x="424" y="337.75" width="136" height="93" as="geometry" />
        </mxCell>
        <mxCell id="CazwhgpImjo2oY49ruT6-49" value="" style="rounded=0;whiteSpace=wrap;html=1;fillColor=#f5f5f5;fontColor=#333333;strokeColor=#0a0a0a;" vertex="1" parent="CazwhgpImjo2oY49ruT6-48">
          <mxGeometry x="16" width="100" height="92" as="geometry" />
        </mxCell>
        <mxCell id="CazwhgpImjo2oY49ruT6-50" value="EN" style="text;html=1;strokeColor=none;fillColor=none;align=center;verticalAlign=middle;whiteSpace=wrap;rounded=0;" vertex="1" parent="CazwhgpImjo2oY49ruT6-48">
          <mxGeometry x="17.5" y="2.25" width="26" height="30" as="geometry" />
        </mxCell>
        <mxCell id="CazwhgpImjo2oY49ruT6-51" value="D" style="text;html=1;strokeColor=none;fillColor=none;align=center;verticalAlign=middle;whiteSpace=wrap;rounded=0;" vertex="1" parent="CazwhgpImjo2oY49ruT6-48">
          <mxGeometry x="17.5" y="33" width="25" height="30" as="geometry" />
        </mxCell>
        <mxCell id="CazwhgpImjo2oY49ruT6-52" value="CLK" style="text;html=1;strokeColor=none;fillColor=none;align=center;verticalAlign=middle;whiteSpace=wrap;rounded=0;" vertex="1" parent="CazwhgpImjo2oY49ruT6-48">
          <mxGeometry x="19" y="61.25" width="30" height="30" as="geometry" />
        </mxCell>
        <mxCell id="CazwhgpImjo2oY49ruT6-53" value="Q" style="text;html=1;strokeColor=none;fillColor=none;align=center;verticalAlign=middle;whiteSpace=wrap;rounded=0;" vertex="1" parent="CazwhgpImjo2oY49ruT6-48">
          <mxGeometry x="96" y="33.25" width="21" height="30" as="geometry" />
        </mxCell>
        <mxCell id="CazwhgpImjo2oY49ruT6-54" value="REG" style="text;html=1;strokeColor=none;fillColor=none;align=center;verticalAlign=middle;whiteSpace=wrap;rounded=0;" vertex="1" parent="CazwhgpImjo2oY49ruT6-48">
          <mxGeometry x="52" y="-0.75" width="38" height="30" as="geometry" />
        </mxCell>
        <mxCell id="CazwhgpImjo2oY49ruT6-66" value="" style="group" vertex="1" connectable="0" parent="1">
          <mxGeometry x="363" y="72" width="136" height="93" as="geometry" />
        </mxCell>
        <mxCell id="CazwhgpImjo2oY49ruT6-67" value="" style="rounded=0;whiteSpace=wrap;html=1;" vertex="1" parent="CazwhgpImjo2oY49ruT6-66">
          <mxGeometry x="16" width="100" height="92" as="geometry" />
        </mxCell>
        <mxCell id="CazwhgpImjo2oY49ruT6-68" value="EN" style="text;html=1;strokeColor=none;fillColor=none;align=center;verticalAlign=middle;whiteSpace=wrap;rounded=0;" vertex="1" parent="CazwhgpImjo2oY49ruT6-66">
          <mxGeometry y="3" width="60" height="30" as="geometry" />
        </mxCell>
        <mxCell id="CazwhgpImjo2oY49ruT6-69" value="D" style="text;html=1;strokeColor=none;fillColor=none;align=center;verticalAlign=middle;whiteSpace=wrap;rounded=0;" vertex="1" parent="CazwhgpImjo2oY49ruT6-66">
          <mxGeometry x="17.5" y="33" width="25" height="30" as="geometry" />
        </mxCell>
        <mxCell id="CazwhgpImjo2oY49ruT6-70" value="CLK" style="text;html=1;strokeColor=none;fillColor=none;align=center;verticalAlign=middle;whiteSpace=wrap;rounded=0;" vertex="1" parent="CazwhgpImjo2oY49ruT6-66">
          <mxGeometry x="4" y="63" width="56" height="30" as="geometry" />
        </mxCell>
        <mxCell id="CazwhgpImjo2oY49ruT6-71" value="Q" style="text;html=1;strokeColor=none;fillColor=none;align=center;verticalAlign=middle;whiteSpace=wrap;rounded=0;" vertex="1" parent="CazwhgpImjo2oY49ruT6-66">
          <mxGeometry x="77" y="16" width="60" height="30" as="geometry" />
        </mxCell>
        <mxCell id="CazwhgpImjo2oY49ruT6-72" value="REG" style="text;html=1;strokeColor=none;fillColor=none;align=center;verticalAlign=middle;whiteSpace=wrap;rounded=0;" vertex="1" parent="CazwhgpImjo2oY49ruT6-66">
          <mxGeometry x="41" width="60" height="30" as="geometry" />
        </mxCell>
        <mxCell id="CazwhgpImjo2oY49ruT6-74" style="edgeStyle=orthogonalEdgeStyle;rounded=0;orthogonalLoop=1;jettySize=auto;html=1;exitX=1;exitY=0.5;exitDx=0;exitDy=0;endArrow=none;endFill=0;" edge="1" parent="1">
          <mxGeometry relative="1" as="geometry">
            <mxPoint x="277" y="386" as="sourcePoint" />
            <mxPoint x="440" y="386" as="targetPoint" />
            <Array as="points" />
          </mxGeometry>
        </mxCell>
        <mxCell id="CazwhgpImjo2oY49ruT6-75" style="edgeStyle=orthogonalEdgeStyle;rounded=0;orthogonalLoop=1;jettySize=auto;html=1;exitX=0;exitY=0.5;exitDx=0;exitDy=0;endArrow=none;endFill=0;" edge="1" parent="1" source="CazwhgpImjo2oY49ruT6-3">
          <mxGeometry relative="1" as="geometry">
            <mxPoint x="506" y="316" as="targetPoint" />
            <Array as="points">
              <mxPoint x="179" y="335" />
              <mxPoint x="179" y="280" />
              <mxPoint x="518" y="280" />
              <mxPoint x="518" y="317" />
            </Array>
          </mxGeometry>
        </mxCell>
        <mxCell id="CazwhgpImjo2oY49ruT6-78" style="edgeStyle=orthogonalEdgeStyle;rounded=0;orthogonalLoop=1;jettySize=auto;html=1;exitX=0;exitY=0.5;exitDx=0;exitDy=0;endArrow=none;endFill=0;" edge="1" parent="1" source="CazwhgpImjo2oY49ruT6-21">
          <mxGeometry relative="1" as="geometry">
            <mxPoint x="540" y="383" as="targetPoint" />
            <Array as="points">
              <mxPoint x="217" y="386" />
              <mxPoint x="217" y="439" />
              <mxPoint x="553" y="439" />
              <mxPoint x="553" y="384" />
              <mxPoint x="540" y="384" />
            </Array>
          </mxGeometry>
        </mxCell>
        <mxCell id="CazwhgpImjo2oY49ruT6-79" value="" style="shape=display;whiteSpace=wrap;html=1;rotation=-90;fillColor=#647687;strokeColor=#314354;fontColor=#ffffff;" vertex="1" parent="1">
          <mxGeometry x="332" y="261" width="13" height="6" as="geometry" />
        </mxCell>
        <mxCell id="CazwhgpImjo2oY49ruT6-82" style="edgeStyle=orthogonalEdgeStyle;rounded=0;orthogonalLoop=1;jettySize=auto;html=1;exitX=0;exitY=0.5;exitDx=0;exitDy=0;exitPerimeter=0;endArrow=none;endFill=0;strokeColor=#23445d;fillColor=#bac8d3;" edge="1" parent="1" source="CazwhgpImjo2oY49ruT6-80">
          <mxGeometry relative="1" as="geometry">
            <mxPoint x="406" y="305" as="targetPoint" />
            <Array as="points">
              <mxPoint x="368" y="304" />
              <mxPoint x="406" y="304" />
            </Array>
          </mxGeometry>
        </mxCell>
        <mxCell id="CazwhgpImjo2oY49ruT6-80" value="" style="shape=display;whiteSpace=wrap;html=1;rotation=-90;fillColor=#bac8d3;strokeColor=#23445d;" vertex="1" parent="1">
          <mxGeometry x="361" y="261" width="13" height="6" as="geometry" />
        </mxCell>
        <mxCell id="CazwhgpImjo2oY49ruT6-83" value="" style="endArrow=none;html=1;rounded=0;strokeColor=#23445d;fillColor=#bac8d3;" edge="1" parent="1">
          <mxGeometry width="50" height="50" relative="1" as="geometry">
            <mxPoint x="367.44" y="354" as="sourcePoint" />
            <mxPoint x="367.44" y="304" as="targetPoint" />
          </mxGeometry>
        </mxCell>
        <mxCell id="CazwhgpImjo2oY49ruT6-84" value="" style="endArrow=none;html=1;rounded=0;entryX=-0.003;entryY=0.177;entryDx=0;entryDy=0;entryPerimeter=0;strokeColor=#23445d;fillColor=#bac8d3;" edge="1" parent="1" target="CazwhgpImjo2oY49ruT6-49">
          <mxGeometry width="50" height="50" relative="1" as="geometry">
            <mxPoint x="367" y="354" as="sourcePoint" />
            <mxPoint x="418" y="304" as="targetPoint" />
          </mxGeometry>
        </mxCell>
        <mxCell id="CazwhgpImjo2oY49ruT6-91" style="edgeStyle=orthogonalEdgeStyle;rounded=0;orthogonalLoop=1;jettySize=auto;html=1;exitX=0;exitY=0.75;exitDx=0;exitDy=0;entryX=0;entryY=0.5;entryDx=0;entryDy=0;entryPerimeter=0;endArrow=none;endFill=0;fillColor=#647687;strokeColor=#314354;" edge="1" parent="1" source="CazwhgpImjo2oY49ruT6-49" target="CazwhgpImjo2oY49ruT6-79">
          <mxGeometry relative="1" as="geometry">
            <Array as="points">
              <mxPoint x="440" y="413" />
              <mxPoint x="338" y="413" />
            </Array>
          </mxGeometry>
        </mxCell>
        <mxCell id="CazwhgpImjo2oY49ruT6-93" value="" style="endArrow=none;html=1;rounded=0;entryX=0.006;entryY=0.873;entryDx=0;entryDy=0;entryPerimeter=0;fillColor=#647687;strokeColor=#314354;" edge="1" parent="1" target="CazwhgpImjo2oY49ruT6-28">
          <mxGeometry width="50" height="50" relative="1" as="geometry">
            <mxPoint x="339" y="367" as="sourcePoint" />
            <mxPoint x="389" y="317" as="targetPoint" />
          </mxGeometry>
        </mxCell>
        <mxCell id="CazwhgpImjo2oY49ruT6-94" value="" style="rounded=0;whiteSpace=wrap;html=1;fillColor=#f5f5f5;fontColor=#333333;strokeColor=#666666;" vertex="1" parent="1">
          <mxGeometry x="608" y="83" width="107" height="101" as="geometry" />
        </mxCell>
        <mxCell id="CazwhgpImjo2oY49ruT6-42" value="EN" style="text;html=1;strokeColor=none;fillColor=none;align=center;verticalAlign=middle;whiteSpace=wrap;rounded=0;" vertex="1" parent="1">
          <mxGeometry x="594" y="84" width="58.23529411764705" height="30" as="geometry" />
        </mxCell>
        <mxCell id="CazwhgpImjo2oY49ruT6-96" value="Enable" style="text;html=1;strokeColor=none;fillColor=none;align=center;verticalAlign=middle;whiteSpace=wrap;rounded=0;" vertex="1" parent="1">
          <mxGeometry x="369" y="249" width="60" height="30" as="geometry" />
        </mxCell>
        <mxCell id="CazwhgpImjo2oY49ruT6-97" value="PLL Clock" style="text;html=1;strokeColor=none;fillColor=none;align=center;verticalAlign=middle;whiteSpace=wrap;rounded=0;" vertex="1" parent="1">
          <mxGeometry x="261" y="249" width="75" height="30" as="geometry" />
        </mxCell>
      </root>
    </mxGraphModel>
  </diagram>
</mxfile>
